<svg xmlns="http://www.w3.org/2000/svg" width="512" height="512" viewBox="0 0 512 512">
  <defs><linearGradient id="bg" x1="0" y1="0" x2="0" y2="1">
    <stop offset="0" stop-color="#5aa79f"/><stop offset="0.6" stop-color="#6fa987"/><stop offset="1" stop-color="#7faa7f"/>
  </linearGradient></defs>
  <rect width="512" height="512" rx="104" fill="url(#bg)"/>
  <g opacity="0.14" stroke="#ffffff" stroke-width="2.5" fill="none">
    <circle cx="356" cy="150" r="60"/><circle cx="356" cy="150" r="96"/>
    <circle cx="130" cy="400" r="70"/><circle cx="130" cy="400" r="108"/>
  </g>
  <g transform="translate(256 250)">
    <path d="M0 -150 L34 -52 L138 -52 L54 8 L86 108 L0 48 L-86 108 L-54 8 L-138 -52 L-34 -52 Z" fill="#ffe14d" stroke="#15151f" stroke-width="10" stroke-linejoin="round"/>
  </g>
  <g transform="translate(256 248) scale(1.55)">
    <circle cx="0" cy="0" r="40" fill="#e63946" stroke="#15151f" stroke-width="4"/>
    <g stroke="#a01f2b" stroke-width="1.6" fill="none" opacity="0.85">
      <path d="M0 -38 V38"/><path d="M-38 0 H38"/><path d="M-27 -27 L27 27"/><path d="M27 -27 L-27 27"/>
      <circle cx="0" cy="0" r="13"/><circle cx="0" cy="0" r="26"/>
    </g>
    <path d="M-21 -12 Q-1 -11 -5 7 Q-19 5 -21 -12Z" fill="#fff" stroke="#15151f" stroke-width="3"/>
    <path d="M21 -12 Q1 -11 5 7 Q19 5 21 -12Z" fill="#fff" stroke="#15151f" stroke-width="3"/>
  </g>
</svg>
